<?xml version="1.0" encoding="UTF-8"?>
<!DOCTYPE svg PUBLIC "-//W3C//DTD SVG 1.1//EN" "http://www.w3.org/Graphics/SVG/1.1/DTD/svg11.dtd">
<!-- Creator: CorelDRAW X5 -->
<svg xmlns="http://www.w3.org/2000/svg" xml:space="preserve" width="210mm" height="297mm" style="shape-rendering:geometricPrecision; text-rendering:geometricPrecision; image-rendering:optimizeQuality; fill-rule:evenodd; clip-rule:evenodd"
viewBox="0 0 21000 29700"
 xmlns:xlink="http://www.w3.org/1999/xlink">
 <defs>
  <style type="text/css">
   <![CDATA[
    .fil2 {fill:#E85903;fill-rule:nonzero}
    .fil0 {fill:#F0F0F0;fill-rule:nonzero}
    .fil1 {fill:#FF9100;fill-rule:nonzero}
   ]]>
  </style>
 </defs>
 <g id="Ebene_x0020_1">
  <metadata id="CorelCorpID_0Corel-Layer"/>
  <path class="fil0" d="M13997 9263c253,-352 1305,-337 1305,484l0 966c0,27 -10,51 -29,72 -19,20 -44,31 -73,31 -32,0 -57,-10 -75,-31 -18,-21 -27,-44 -27,-72l-2 -966c0,-599 -996,-668 -996,-65l1 1032c0,27 -10,51 -29,72 -19,20 -44,31 -73,31 -30,0 -54,-10 -73,-31 -19,-21 -29,-44 -29,-72l7 -1040c-1,-594 -973,-525 -973,74l0 966c0,27 -10,51 -31,72 -21,20 -44,31 -72,31 -32,0 -58,-10 -77,-31 -19,-21 -29,-44 -29,-72l0 -966c0,-818 1023,-836 1277,-484z"/>
  <path class="fil0" d="M11596 10813c-32,0 -57,-10 -76,-30 -19,-20 -29,-44 -29,-71l0 -1563c0,-27 10,-51 30,-71 20,-20 45,-30 74,-30 29,0 53,10 73,30 19,20 29,44 29,71l0 263c71,-152 338,-364 604,-364 41,0 176,9 176,108 0,112 -99,105 -124,105 -393,0 -656,444 -656,567l0 885c0,27 -10,51 -30,71 -20,20 -44,30 -71,30z"/>
  <path class="fil0" d="M8040 10813c-32,0 -58,-10 -77,-31 -19,-21 -29,-45 -29,-72l0 -2005c0,-145 159,-292 281,-292l1070 0c27,0 51,10 72,29 21,19 31,44 31,74 0,27 -10,51 -31,70 -21,19 -45,29 -72,29l-947 0c-107,0 -194,87 -194,194l0 697 -17 -31 1005 0c27,0 51,10 72,29 21,19 31,44 31,74 0,27 -10,51 -31,70 -21,19 -45,29 -72,29l-1011 0 24 -31 0 1063c0,27 -10,51 -29,72 -19,21 -44,31 -74,31z"/>
  <path class="fil0" d="M11151 9934c0,168 -37,318 -111,452 -74,134 -174,238 -300,314 -126,76 -268,114 -427,114 -157,0 -298,-38 -425,-114 -127,-76 -227,-181 -301,-314 -74,-133 -111,-284 -111,-452 0,-170 37,-321 111,-454 74,-132 174,-237 301,-314 127,-77 269,-116 425,-116 159,0 301,39 427,116 126,77 226,182 300,314 74,132 111,284 111,454zm-202 0c0,-135 -28,-254 -83,-359 -55,-105 -131,-187 -227,-247 -96,-60 -205,-89 -326,-89 -121,0 -230,30 -326,89 -96,60 -172,142 -228,247 -56,105 -84,225 -84,359 0,135 28,254 84,358 56,104 132,186 228,247 96,61 205,91 326,91 121,0 230,-30 326,-91 96,-61 172,-143 227,-247 55,-104 83,-223 83,-358z"/>
  <path class="fil0" d="M18595 9047c30,0 54,10 74,31 19,21 29,45 29,72l0 967c0,226 -64,399 -192,518 -128,119 -301,178 -518,178 -217,0 -389,-59 -516,-178 -127,-119 -190,-291 -190,-518l0 -967c0,-27 10,-51 31,-72 21,-21 46,-31 75,-31 30,0 54,10 74,31 19,21 29,45 29,72l0 967c0,165 44,290 132,375 88,86 210,129 365,129 158,0 281,-43 369,-129 88,-86 132,-211 132,-375l0 -967c0,-27 10,-51 29,-72 19,-21 45,-31 77,-31z"/>
  <path class="fil0" d="M19143 9047c34,0 61,15 82,44l1204 1558c16,18 24,39 24,61 0,27 -10,51 -31,71 -20,20 -44,31 -71,31 -32,0 -60,-15 -85,-44l-1208 -1555c-14,-18 -20,-39 -20,-61 0,-32 11,-57 32,-77 22,-19 46,-29 73,-29zm0 1766c-23,0 -45,-8 -66,-24 -22,-16 -32,-39 -32,-68 0,-25 8,-46 24,-65l575 -738 112 167 -531 687c-20,27 -48,41 -82,41zm1208 -1766c29,0 53,9 70,26 17,17 26,38 26,63 0,11 -2,23 -5,34 -3,11 -10,23 -19,34l-575 752 -109 -163 527 -701c25,-29 53,-44 85,-44z"/>
  <path class="fil0" d="M15748 10813c-32,0 -58,-10 -77,-31 -19,-21 -29,-45 -29,-72l0 -2005c0,-145 159,-292 281,-292l1070 0c27,0 51,10 72,29 21,19 31,44 31,74 0,27 -10,51 -31,70 -21,19 -45,29 -72,29l-947 0c-107,0 -194,87 -194,194l0 697 -17 -31 1005 0c27,0 51,10 72,29 21,19 31,44 31,74 0,27 -10,51 -31,70 -21,19 -45,29 -72,29l-1011 0 24 -31 0 1063c0,27 -10,51 -29,72 -19,21 -44,31 -74,31z"/>
  <path class="fil1" d="M7151 7986l-1024 667 -1200 782 0 64 0 422c0,39 14,78 39,108l1075 1293c45,54 128,54 173,0l1075 -1293c25,-30 39,-69 39,-108l0 -1841c0,-90 -100,-144 -176,-95z"/>
  <path class="fil2" d="M4927 9211l0 -1114c0,-130 100,-164 196,-96l834 542c1,1 -1030,669 -1030,669z"/>
 </g>
</svg>
